<?xml version="1.0" encoding="iso-8859-1"?>
<!-- Generator: Adobe Illustrator 19.0.0, SVG Export Plug-In . SVG Version: 6.00 Build 0)  -->
<svg version="1.1" id="Layer_1" xmlns="http://www.w3.org/2000/svg" xmlns:xlink="http://www.w3.org/1999/xlink" x="0px" y="0px"
	 viewBox="0 0 512 512" style="enable-background:new 0 0 512 512;" xml:space="preserve">
<path style="fill:#FF7058;" d="M341.333,426.667H0V256C0,162.133,76.8,85.333,170.667,85.333h170.667
	C435.2,85.333,512,162.133,512,256l0,0C512,349.867,435.2,426.667,341.333,426.667z"/>
<g>
	<path style="fill:#FFFFFF;" d="M30.933,302.933c0-7.467,6.4-14.933,14.933-14.933S60.8,294.4,60.8,302.933
		c0,7.467-6.4,14.933-14.933,14.933S30.933,310.4,30.933,302.933z"/>
	<path style="fill:#FFFFFF;" d="M76.8,302.933c0-7.467,6.4-14.933,14.933-14.933s14.933,6.4,14.933,14.933
		c0,7.467-6.4,14.933-14.933,14.933S76.8,310.4,76.8,302.933z"/>
	<path style="fill:#FFFFFF;" d="M122.667,315.733v-17.067l39.467-50.133h-39.467v-20.267h71.467v16l-40.533,51.2h40.533v20.267
		H122.667z"/>
	<path style="fill:#FFFFFF;" d="M210.133,315.733V294.4l57.6-77.867h-57.6v-22.4H300.8V214.4l-57.6,77.867h58.667v22.4h-91.733
		V315.733z"/>
	<path style="fill:#FFFFFF;" d="M317.867,315.733v-17.067l39.467-50.133h-39.467v-20.267h71.467v16l-40.533,51.2h40.533v20.267
		H317.867z"/>
	<path style="fill:#FFFFFF;" d="M405.333,302.933c0-7.467,6.4-14.933,14.933-14.933c7.467,0,14.933,6.4,14.933,14.933
		c0,7.467-6.4,14.933-14.933,14.933S405.333,310.4,405.333,302.933z"/>
	<path style="fill:#FFFFFF;" d="M452.267,302.933c0-7.467,6.4-14.933,14.933-14.933s14.933,6.4,14.933,14.933
		c0,7.467-6.4,14.933-14.933,14.933S452.267,310.4,452.267,302.933z"/>
</g>
<path style="opacity:0.1;fill:#231F20;enable-background:new    ;" d="M149.333,117.333H320c93.867,0,170.667,76.8,170.667,170.667
	c0,27.733-6.4,54.4-19.2,77.867C497.067,336,512,297.6,512,256c0-93.867-76.8-170.667-170.667-170.667H170.667
	c-66.133,0-123.733,37.333-151.467,92.8C50.133,140.8,97.067,117.333,149.333,117.333z"/>
<g>
</g>
<g>
</g>
<g>
</g>
<g>
</g>
<g>
</g>
<g>
</g>
<g>
</g>
<g>
</g>
<g>
</g>
<g>
</g>
<g>
</g>
<g>
</g>
<g>
</g>
<g>
</g>
<g>
</g>
</svg>
